<?xml version="1.0" encoding="UTF-8"?>
<!DOCTYPE svg PUBLIC "-//W3C//DTD SVG 1.1//EN" "http://www.w3.org/Graphics/SVG/1.1/DTD/svg11.dtd">
<!-- Creator: CorelDRAW X7 -->
<svg xmlns="http://www.w3.org/2000/svg" xml:space="preserve" width="210mm" height="297mm" version="1.1" style="shape-rendering:geometricPrecision; text-rendering:geometricPrecision; image-rendering:optimizeQuality; fill-rule:evenodd; clip-rule:evenodd"
viewBox="0 0 21000 29700"
 xmlns:xlink="http://www.w3.org/1999/xlink">
 <defs>
  <style type="text/css">
   <![CDATA[
    .str0 {stroke:#373435;stroke-width:20}
    .fil3 {fill:none}
    .fil5 {fill:#FEFEFE}
    .fil6 {fill:#FEFEFE}
    .fil1 {fill:#6B809B}
    .fil8 {fill:#002657}
    .fil9 {fill:#0A8DBE}
    .fil4 {fill:#17ABCF}
    .fil0 {fill:#21426D}
    .fil7 {fill:#F89224}
    .fil11 {fill:white}
    .fil10 {fill:url(#id1)}
    .fil2 {fill:url(#id2)}
   ]]>
  </style>
   <clipPath id="id0">
    <rect x="5929" y="7526" width="9735" height="9788"/>
   </clipPath>
  <radialGradient id="id1" gradientUnits="userSpaceOnUse" gradientTransform="matrix(6.12323E-017 -1 1.00004 6.1235E-017 -1040 22574)" cx="10767.4" cy="11806.9" r="227.77" fx="10767.4" fy="11806.9">
   <stop offset="0" style="stop-opacity:1; stop-color:#17ABCF"/>
   <stop offset="0.709804" style="stop-opacity:1; stop-color:#109CC6"/>
   <stop offset="1" style="stop-opacity:1; stop-color:#0A8DBE"/>
  </radialGradient>
  <radialGradient id="id2" gradientUnits="userSpaceOnUse" gradientTransform="matrix(2.91994E-016 -1.03077 1.03077 6.31165E-017 -1426 22939)" cx="10772.8" cy="11834.7" r="696.44" fx="10772.8" fy="11834.7">
   <stop offset="0" style="stop-opacity:1; stop-color:#002657"/>
   <stop offset="1" style="stop-opacity:1; stop-color:#052B5A"/>
  </radialGradient>
 </defs>
 <g id="Camada_x0020_1">
  <metadata id="CorelCorpID_0Corel-Layer"/>
  <g style="clip-path:url(#id0)">
   <image x="5929" y="7526" width="9735" height="9788" xlink:href="AsDvLgSVG_Images\AsDvLgSVG_ImgID1.png"/>
  </g>
  <path class="fil0" d="M10810 12428c15,12 25,30 25,50 0,8 -2,16 -4,23 346,-29 620,-310 637,-659 -11,17 -30,28 -52,28 -22,0 -41,-11 -52,-28l-341 0c-1,4 -1,8 -2,12l0 102 66 0c9,-22 31,-37 57,-37 34,0 62,28 62,62 0,34 -28,62 -62,62 -24,0 -45,-13 -55,-33l-122 0 0 211c20,10 34,31 34,55 0,34 -28,62 -62,62 -35,0 -62,-28 -62,-62 0,-24 13,-44 33,-55l0 -156 -100 0 0 363z"/>
  <path class="fil1" d="M10773 12503c384,0 696,-312 696,-696 0,-385 -312,-697 -696,-697 -385,0 -697,312 -697,697 0,384 312,696 697,696z"/>
  <path class="fil0" d="M10732 12431l0 -361 0 -6 -91 0 0 72c14,11 23,28 23,48 0,34 -28,62 -63,62 -34,0 -62,-28 -62,-62 0,-23 13,-44 31,-54l0 -120 -203 0c-11,18 -31,29 -53,29 -34,0 -62,-27 -62,-62 0,-34 28,-62 62,-62 27,0 50,17 59,41l148 0 0 -74c-4,-13 -7,-27 -9,-41l-325 0c-11,20 -31,33 -55,33 -24,0 -44,-13 -55,-32 17,349 292,630 638,659 -3,-7 -5,-15 -5,-23 0,-18 9,-35 22,-47z"/>
  <path class="fil0" d="M10186 11782l325 0c1,-16 4,-32 9,-48l0 -65 -56 0c-9,23 -31,38 -57,38 -34,0 -62,-28 -62,-62 0,-34 28,-62 62,-62 22,0 41,11 52,29l112 0 0 -210c-17,-11 -29,-31 -29,-53 0,-35 28,-62 62,-62 34,0 62,27 62,62 0,27 -18,51 -43,59l0 135 110 0 0 -317c-13,-12 -22,-29 -22,-48 0,-34 28,-62 63,-62 34,0 62,28 62,62 0,25 -14,46 -35,56l0 309 113 0 1 -49c-20,-10 -34,-31 -34,-56 0,-34 28,-62 62,-62 35,0 62,28 62,62 0,26 -14,47 -36,57l0 116 212 0c11,-16 30,-26 51,-26 34,0 62,28 62,62 0,34 -28,62 -62,62 -27,0 -50,-17 -59,-41l-158 0 0 66c5,16 8,32 9,48l336 0c9,-21 31,-36 56,-36 22,0 41,11 52,28 -17,-369 -322,-664 -695,-664 -377,0 -684,299 -696,673 10,-20 31,-33 55,-33 23,0 44,13 54,32z"/>
  <path class="fil2" d="M10773 12503c384,0 696,-312 696,-696 0,-385 -312,-697 -696,-697 -385,0 -697,312 -697,697 0,384 312,696 697,696z"/>
  <path class="fil3 str0" d="M10743 13087c70,0 127,-57 127,-127 0,-70 -57,-127 -127,-127 -70,0 -127,57 -127,127 0,70 57,127 127,127zm0 270c219,0 397,-178 397,-397 0,-219 -178,-397 -397,-397 -219,0 -397,178 -397,397 0,219 178,397 397,397zm391 -330c309,-100 529,-274 718,-581 22,-39 22,-88 0,-127 -23,-39 -64,-63 -109,-63 -45,0 -87,24 -110,63 -153,250 -316,375 -539,455"/>
  <circle class="fil3 str0" cx="11902" cy="11817" r="397"/>
  <circle class="fil3 str0" cx="11902" cy="11817" r="127"/>
  <circle class="fil3 str0" cx="10187" cy="10822" r="397"/>
  <circle class="fil3 str0" cx="10187" cy="10822" r="127"/>
  <circle class="fil3 str0" cx="8970" cy="11870" r="397"/>
  <circle class="fil3 str0" cx="8970" cy="11870" r="127"/>
  <circle class="fil3 str0" cx="11907" cy="10462" r="397"/>
  <circle class="fil3 str0" cx="11907" cy="10462" r="127"/>
  <circle class="fil3 str0" cx="10314" cy="11977" r="62"/>
  <path class="fil3 str0" d="M10773 12540c34,0 62,-27 62,-62 0,-34 -28,-62 -62,-62 -35,0 -63,28 -63,62 0,35 28,62 63,62zm166 -202c34,0 62,-28 62,-62 0,-34 -28,-62 -62,-62 -35,0 -62,28 -62,62 0,34 27,62 62,62zm-129 90l0 -363 100 0 0 156m57 0l0 -211 122 0m55 33c34,0 62,-28 62,-62 0,-34 -28,-62 -62,-62 -35,0 -62,28 -62,62 0,34 27,62 62,62zm-57 -87l-66 0 0 -102m395 16c35,0 62,-28 62,-62 0,-34 -27,-62 -62,-62 -34,0 -62,28 -62,62 0,34 28,62 62,62zm-395 -28l343 0m-340 -60l336 0m-345 -48l0 -66 158 0m59 41c34,0 62,-28 62,-62 0,-34 -28,-62 -62,-62 -34,0 -62,28 -62,62 0,34 28,62 62,62zm-263 -214l0 116 212 0m-238 -110c35,0 62,-28 62,-63 0,-34 -27,-62 -62,-62 -34,0 -62,28 -62,62 0,35 28,63 62,63zm-142 -267l0 309 113 0 1 -49m-141 -253c34,0 62,-28 62,-63 0,-34 -28,-62 -62,-62 -35,0 -63,28 -63,62 0,35 28,63 63,63zm-170 170c34,0 62,-28 62,-62 0,-35 -28,-62 -62,-62 -34,0 -62,27 -62,62 0,34 28,62 62,62zm19 -3l0 135 110 0 0 -317m-274 386l112 0 0 -210m-51 332l0 -65 -56 0m-57 38c34,0 62,-28 62,-62 0,-34 -28,-62 -62,-62 -34,0 -62,28 -62,62 0,34 28,62 62,62zm104 75l-325 0m-54 92c34,0 62,-28 62,-62 0,-35 -28,-62 -62,-62 -35,0 -62,27 -62,62 0,34 27,62 62,62zm380 -33l-325 0m186 115l148 0 0 -74m-207 157c35,0 62,-27 62,-62 0,-34 -27,-62 -62,-62 -34,0 -62,28 -62,62 0,35 28,62 62,62zm53 -29l203 0 0 120m31 116c35,0 63,-28 63,-62 0,-35 -28,-63 -63,-63 -34,0 -62,28 -62,63 0,34 28,62 62,62zm40 -110l0 -72 91 0 0 367m35 -366c143,0 258,-116 258,-258 0,-143 -115,-258 -258,-258 -142,0 -258,115 -258,258 0,142 116,258 258,258z"/>
  <path class="fil3 str0" d="M11697 11477c-124,-398 -568,-695 -935,-669 -76,8 -144,-47 -152,-123 -9,-76 46,-144 122,-152 655,0 1095,422 1231,892"/>
  <path class="fil3 str0" d="M9977 11159c-377,617 -290,1127 258,1532"/>
  <path class="fil3 str0" d="M10235 12691c69,29 101,109 72,177 -29,69 -109,101 -177,72 -473,-271 -674,-825 -644,-1217 20,-271 108,-532 323,-781"/>
  <path class="fil3 str0" d="M9141 11512c93,-482 369,-839 676,-1056 372,-263 907,-363 1478,-196"/>
  <path class="fil3 str0" d="M8872 11485c71,-556 390,-969 758,-1223 423,-291 1028,-503 1766,-253 45,18 77,59 84,107 7,47 -13,95 -51,125 -38,30 -89,37 -134,19"/>
  <path class="fil3 str0" d="M12064 10827c225,311 336,631 333,961 -4,385 -121,802 -477,1195"/>
  <path class="fil3 str0" d="M12261 10641c271,353 407,721 408,1105 1,452 -114,985 -559,1423 -52,53 -136,54 -189,2 -52,-51 -53,-136 -1,-188"/>
  <path class="fil3 str0" d="M11664 13648c56,-133 85,-259 89,-377 -302,178 -594,267 -876,269 -610,4 -1446,-461 -1691,-1221 -66,34 -152,50 -258,49 48,196 145,393 292,591 185,251 476,495 820,750 -61,-8 -128,-31 -202,-68l0 781c84,197 217,304 399,320 16,276 357,327 532,333 167,6 464,-70 495,-267 -165,16 -286,0 -363,-46 436,34 690,-85 763,-358l0 -756z"/>
  <path class="fil4 str0" d="M11664 13648c56,-133 85,-259 89,-377 -302,178 -594,267 -876,269 -610,4 -1446,-461 -1691,-1221 -66,34 -152,50 -258,49 48,196 145,393 292,591 185,251 476,495 820,750 -61,-8 -128,-31 -202,-68l0 781c84,197 217,304 399,320 16,276 357,327 532,333 167,6 464,-70 495,-267 -165,16 -286,0 -363,-46 436,34 690,-85 763,-358l0 -756z"/>
  <path class="fil4 str0" d="M8970 12267c219,0 397,-178 397,-397 0,-158 -92,-294 -226,-358 -52,-25 -110,-39 -171,-39 -34,0 -66,4 -98,12 -172,44 -299,200 -299,385 0,219 178,397 397,397zm127 -397c0,70 -57,127 -127,127 -70,0 -127,-57 -127,-127 0,-70 57,-127 127,-127 70,0 127,57 127,127z"/>
  <path class="fil4 str0" d="M8970 11473c61,0 119,14 171,39 93,-482 369,-839 676,-1056 372,-263 907,-363 1478,-196 45,18 96,11 134,-19 38,-30 58,-78 51,-125 -7,-48 -39,-89 -84,-107 -738,-250 -1343,-38 -1766,253 -368,254 -687,667 -758,1223 32,-8 64,-12 98,-12z"/>
  <path class="fil5 str0" d="M12064 10827c225,311 336,631 333,961 -4,385 -121,802 -477,1195 -52,52 -51,137 1,188 53,52 137,51 189,-2 445,-438 560,-971 559,-1423 -1,-384 -137,-752 -408,-1105 -42,83 -112,149 -197,186z"/>
  <path class="fil6 str0" d="M12064 10827c85,-37 155,-103 197,-186 28,-53 43,-114 43,-179 0,-219 -178,-396 -397,-396 -219,0 -397,177 -397,396 0,220 178,397 397,397 56,0 109,-11 157,-32zm-30 -365c0,71 -57,127 -127,127 -70,0 -127,-56 -127,-127 0,-70 57,-127 127,-127 70,0 127,57 127,127z"/>
  <path class="fil6 str0" d="M10235 12691c-548,-405 -635,-915 -258,-1532 -79,-50 -140,-126 -168,-217 -215,249 -303,510 -323,781 -30,392 171,946 644,1217 68,29 148,-3 177,-72 29,-68 -3,-148 -72,-177z"/>
  <path class="fil6 str0" d="M9977 11159c61,38 133,60 210,60 220,0 397,-178 397,-397 0,-219 -177,-397 -397,-397 -219,0 -397,178 -397,397 0,42 7,82 19,120 28,91 89,167 168,217zm337 -337c0,70 -57,127 -127,127 -70,0 -127,-57 -127,-127 0,-70 57,-127 127,-127 70,0 127,57 127,127z"/>
  <path class="fil7 str0" d="M10762 10808c367,-26 811,271 935,669 59,-36 130,-57 205,-57 21,0 41,2 61,5 -136,-470 -576,-892 -1231,-892 -76,8 -131,76 -122,152 8,76 76,131 152,123z"/>
  <path class="fil7 str0" d="M11697 11477c-115,70 -192,196 -192,340 0,219 178,397 397,397 219,0 397,-178 397,-397 0,-198 -146,-363 -336,-392 -20,-3 -40,-5 -61,-5 -75,0 -146,21 -205,57zm205 467c-70,0 -127,-57 -127,-127 0,-70 57,-127 127,-127 70,0 127,57 127,127 0,70 -57,127 -127,127z"/>
  <path class="fil7 str0" d="M11633 12319c-153,250 -316,375 -539,455 29,56 46,119 46,186 0,23 -2,45 -6,67 309,-100 529,-274 718,-581 22,-39 22,-88 0,-127 -23,-39 -64,-63 -109,-63 -45,0 -87,24 -110,63z"/>
  <path class="fil7 str0" d="M11140 12960c0,-67 -17,-130 -46,-186 -67,-125 -199,-211 -351,-211 -219,0 -397,178 -397,397 0,219 178,397 397,397 196,0 360,-143 391,-330 4,-22 6,-44 6,-67zm-270 0c0,70 -57,127 -127,127 -70,0 -127,-57 -127,-127 0,-70 57,-127 127,-127 70,0 127,57 127,127z"/>
  <path class="fil8 str0" d="M8970 11997c70,0 127,-57 127,-127 0,-70 -57,-127 -127,-127 -70,0 -127,57 -127,127 0,70 57,127 127,127z"/>
  <path class="fil8 str0" d="M10743 12833c-70,0 -127,57 -127,127 0,70 57,127 127,127 70,0 127,-57 127,-127 0,-70 -57,-127 -127,-127z"/>
  <path class="fil8 str0" d="M10187 10949c70,0 127,-57 127,-127 0,-70 -57,-127 -127,-127 -70,0 -127,57 -127,127 0,70 57,127 127,127z"/>
  <path class="fil8 str0" d="M11902 11690c-70,0 -127,57 -127,127 0,70 57,127 127,127 70,0 127,-57 127,-127 0,-70 -57,-127 -127,-127z"/>
  <path class="fil8 str0" d="M11907 10589c70,0 127,-56 127,-127 0,-70 -57,-127 -127,-127 -70,0 -127,57 -127,127 0,71 57,127 127,127z"/>
  <path class="fil9 str0" d="M10194 11812c0,-11 -3,-21 -8,-30 -10,-19 -31,-32 -54,-32 -35,0 -62,27 -62,62 0,34 27,62 62,62 24,0 44,-13 55,-33 4,-9 7,-19 7,-29z"/>
  <path class="fil9 str0" d="M10314 11915c-34,0 -62,28 -62,62 0,35 28,62 62,62 22,0 42,-11 53,-29 6,-9 9,-21 9,-33 0,-7 -1,-14 -3,-21 -9,-24 -32,-41 -59,-41z"/>
  <path class="fil9 str0" d="M10570 12130c-18,10 -31,31 -31,54 0,34 28,62 62,62 35,0 63,-28 63,-62 0,-20 -9,-37 -23,-48 -11,-9 -25,-15 -40,-15 -11,0 -22,3 -31,9z"/>
  <path class="fil9 str0" d="M10877 12276c0,34 27,62 62,62 34,0 62,-28 62,-62 0,-24 -14,-45 -34,-55 -8,-5 -18,-7 -28,-7 -11,0 -21,3 -29,7 -20,11 -33,31 -33,55z"/>
  <path class="fil9 str0" d="M11144 12043c34,0 62,-28 62,-62 0,-34 -28,-62 -62,-62 -26,0 -48,15 -57,37 -4,8 -5,16 -5,25 0,11 2,20 7,29 10,20 31,33 55,33z"/>
  <path class="fil9 str0" d="M11232 11709c34,0 62,-28 62,-62 0,-34 -28,-62 -62,-62 -21,0 -40,10 -51,26 -7,11 -11,23 -11,36 0,8 1,15 3,21 9,24 32,41 59,41z"/>
  <path class="fil9 str0" d="M10969 11495c22,-10 36,-31 36,-57 0,-34 -27,-62 -62,-62 -34,0 -62,28 -62,62 0,25 14,46 34,56 8,4 18,7 28,7 10,0 18,-2 26,-6z"/>
  <path class="fil9 str0" d="M10666 11349c0,-35 -28,-62 -62,-62 -34,0 -62,27 -62,62 0,22 12,42 29,53 10,6 21,9 33,9 7,0 13,-1 19,-3 25,-8 43,-32 43,-59z"/>
  <path class="fil9 str0" d="M10459 11612c-11,-18 -30,-29 -52,-29 -34,0 -62,28 -62,62 0,34 28,62 62,62 26,0 48,-15 57,-38 3,-7 5,-15 5,-24 0,-12 -4,-24 -10,-33z"/>
  <path class="fil9 str0" d="M10314 11915c-34,0 -62,28 -62,62 0,35 28,62 62,62 22,0 42,-11 53,-29 6,-9 9,-21 9,-33 0,-7 -1,-14 -3,-21 -9,-24 -32,-41 -59,-41z"/>
  <path class="fil9 str0" d="M10187 11841l325 0c-2,-11 -3,-23 -3,-34 0,-9 1,-17 2,-25l-325 0c5,9 8,19 8,30 0,10 -3,20 -7,29z"/>
  <line class="fil3 str0" x1="10732" y1="12062" x2="10732" y2= "12070" />
  <path class="fil9 str0" d="M10641 12064l91 0 0 -2c-101,-14 -183,-85 -211,-180l0 74 -148 0c2,7 3,14 3,21 0,12 -3,24 -9,33l203 0 0 120c9,-6 20,-9 31,-9 15,0 29,6 40,15l0 -72z"/>
  <path class="fil9 str0" d="M10732 12070l0 361c11,-9 25,-15 41,-15 14,0 27,5 37,12l0 -363 100 0 0 156c8,-4 18,-7 29,-7 10,0 20,2 28,7l0 -211 122 0c-5,-9 -7,-18 -7,-29 0,-9 1,-17 5,-25l-66 0 0 -102c-22,120 -127,211 -254,211 -12,0 -24,-1 -35,-3l0 2 0 6z"/>
  <path class="fil9 str0" d="M11023 11842l341 0c-6,-10 -10,-22 -10,-34 0,-9 2,-18 6,-26l-336 0c1,8 1,17 1,25 0,12 0,23 -2,35z"/>
  <path class="fil9 str0" d="M11015 11668l158 0c-2,-6 -3,-13 -3,-21 0,-13 4,-25 11,-36l-212 0 0 -116c-8,4 -16,6 -26,6 -10,0 -20,-3 -28,-7l-1 49 -113 0 0 -309c-8,4 -18,7 -27,7 -16,0 -30,-6 -41,-15l0 317 -110 0 0 -135c-6,2 -12,3 -19,3 -12,0 -23,-3 -33,-9l0 210 -112 0c6,9 10,21 10,33 0,9 -2,17 -5,24l56 0 0 65c31,-107 130,-185 247,-185 118,0 217,78 248,185l0 -66z"/>
  <circle class="fil3 str0" cx="10767" cy="11807" r="228"/>
  <path class="fil9 str0" d="M10767 12035c-125,0 -227,-102 -227,-228 0,-126 102,-228 227,-228 126,0 228,102 228,228 0,126 -102,228 -228,228zm-246 -153c28,95 110,166 211,180 11,2 23,3 35,3 127,0 232,-91 254,-211 1,-4 1,-8 2,-12 2,-12 2,-23 2,-35 0,-8 0,-17 -1,-25 -1,-16 -4,-32 -9,-48 -31,-107 -130,-185 -248,-185 -117,0 -216,78 -247,185 -5,16 -8,32 -9,48 -1,8 -2,16 -2,25 0,11 1,23 3,34 2,14 5,28 9,41z"/>
  <path class="fil10 str0" d="M10540 11807c0,126 102,228 227,228 126,0 228,-102 228,-228 0,-126 -102,-228 -228,-228 -125,0 -227,102 -227,228z"/>
  <path class="fil3 str0" d="M10334 8338c-148,2 -237,73 -268,213l0 366c-5,94 -63,182 -152,225l-619 296c-101,48 -164,48 -267,-15l-218 -219c-94,-94 -192,-117 -342,-7l-518 517c-72,103 -72,206 0,309l246 219c57,52 86,127 64,201l-139 475c-58,196 -96,413 -313,413l-327 0c-127,7 -192,94 -195,215l0 754c25,122 98,193 219,212l374 0c93,0 142,18 191,127l273 596c54,103 94,224 5,312l-219 220c-87,77 -149,208 -53,304l487 487c114,88 251,95 388,0l550 -709c-856,-564 -1147,-1484 -1126,-2079 54,-1496 1261,-2360 2411,-2340 443,8 2150,232 2349,2334 56,583 -227,1481 -1111,2078l518 716c103,142 258,129 398,0l487 -487c152,-152 54,-208 -39,-304l-251 -251c-77,-77 -13,-178 75,-373l224 -493c38,-83 81,-140 154,-162l391 0c140,-2 226,-71 258,-207l0 -714c5,-142 -81,-219 -258,-232l-393 0c-81,0 -105,-106 -135,-206l-197 -645c-22,-62 -25,-129 25,-184l275 -304c55,-106 55,-205 0,-295l-508 -542c-95,-102 -217,-77 -302,0l-303 276c-59,54 -133,33 -244,-17l-554 -253c-126,-57 -207,-93 -204,-274l0 -316c0,-227 -85,-237 -359,-237l-748 0"/>
  <path class="fil11 str0" d="M8375 11770c54,-1496 1261,-2360 2411,-2340 443,8 2150,232 2349,2334 56,583 -227,1481 -1111,2078l518 716c103,142 258,129 398,0l487 -487c152,-152 54,-208 -39,-304l-251 -251c-77,-77 -13,-178 75,-373l224 -493c38,-83 81,-140 154,-162l391 0c140,-2 226,-71 258,-207l0 -714c5,-142 -81,-219 -258,-232l-393 0c-81,0 -105,-106 -135,-206l-197 -645c-22,-62 -25,-129 25,-184l275 -304c55,-106 55,-205 0,-295l-508 -542c-95,-102 -217,-77 -302,0l-303 276c-59,54 -133,33 -244,-17l-554 -253c-126,-57 -207,-93 -204,-274l0 -316c0,-227 -85,-237 -359,-237l-748 0c-148,2 -237,73 -268,213l0 366c-5,94 -63,182 -152,225l-619 296c-101,48 -164,48 -267,-15l-218 -219c-94,-94 -192,-117 -342,-7l-518 517c-72,103 -72,206 0,309l246 219c57,52 86,127 64,201l-139 475c-58,196 -96,413 -313,413l-327 0c-127,7 -192,94 -195,215l0 754c25,122 98,193 219,212l374 0c93,0 142,18 191,127l273 596c54,103 94,224 5,312l-219 220c-87,77 -149,208 -53,304l487 487c114,88 251,95 388,0l550 -709c-856,-564 -1147,-1484 -1126,-2079z"/>
  <circle class="fil3 str0" cx="4690" cy="11807" r="696"/>
  <path class="fil3 str0" d="M4690 12503c385,0 696,-312 696,-696 0,-385 -311,-697 -696,-697 -385,0 -696,312 -696,697 0,384 311,696 696,696z"/>
  <path class="fil3 str0" d="M4690 12503c385,0 696,-312 696,-696 0,-385 -311,-697 -696,-697 -385,0 -696,312 -696,697 0,384 311,696 696,696z"/>
  <path class="fil3 str0" d="M9501 13849c117,60 229,84 337,71"/>
  <path class="fil3 str0" d="M12024 13842c-114,57 -234,83 -360,80"/>
  <path class="fil0" d="M10040 13709c-344,-255 -635,-499 -820,-750 -147,-198 -244,-395 -292,-591 106,1 192,-15 258,-49 245,760 1081,1225 1691,1221 282,-2 574,-91 876,-269 -4,118 -33,244 -89,377l0 274c126,3 246,-23 360,-80 884,-597 1167,-1495 1111,-2078 -199,-2102 -1906,-2326 -2349,-2334 -1150,-20 -2357,844 -2411,2340 -21,595 270,1515 1126,2079 117,60 229,84 337,71l0 -279c74,37 141,60 202,68zm703 -352c-219,0 -397,-178 -397,-397 0,-219 178,-397 397,-397 152,0 284,86 351,211 223,-80 386,-205 539,-455 23,-39 65,-63 110,-63 45,0 86,24 109,63 22,39 22,88 0,127 -189,307 -409,481 -718,581 -31,187 -195,330 -391,330zm1178 -186c-52,-51 -53,-136 -1,-188 356,-393 473,-810 477,-1195 3,-330 -108,-650 -333,-961 -48,21 -101,32 -157,32 -219,0 -397,-177 -397,-397 0,-219 178,-396 397,-396 219,0 397,177 397,396 0,65 -15,126 -43,179 271,353 407,721 408,1105 1,452 -114,985 -559,1423 -52,53 -136,54 -189,2zm-1791 -231c-473,-271 -674,-825 -644,-1217 20,-271 108,-532 323,-781 -12,-38 -19,-78 -19,-120 0,-219 178,-397 397,-397 220,0 397,178 397,397 0,219 -177,397 -397,397 -77,0 -149,-22 -210,-60 -377,617 -290,1127 258,1532 69,29 101,109 72,177 -29,69 -109,101 -177,72zm585 -439c-346,-29 -621,-310 -638,-659 -5,-9 -7,-19 -7,-30 0,-11 2,-21 7,-29 12,-374 319,-673 696,-673 373,0 678,295 695,664 7,10 10,21 10,34 0,12 -3,24 -10,34 -17,349 -291,630 -637,659 -9,23 -32,39 -58,39 -27,0 -49,-16 -58,-39zm1187 -287c-219,0 -397,-178 -397,-397 0,-144 77,-270 192,-340 -124,-398 -568,-695 -935,-669 -76,8 -144,-47 -152,-123 -9,-76 46,-144 122,-152 655,0 1095,422 1231,892 190,29 336,194 336,392 0,219 -178,397 -397,397zm-2535 -344c0,219 -178,397 -397,397 -219,0 -397,-178 -397,-397 0,-185 127,-341 299,-385 71,-556 390,-969 758,-1223 423,-291 1028,-503 1766,-253 45,18 77,59 84,107 7,47 -13,95 -51,125 -38,30 -89,37 -134,19 -571,-167 -1106,-67 -1478,196 -307,217 -583,574 -676,1056 134,64 226,200 226,358z"/>
  <path class="fil9 str0" d="M11364 11842c11,17 30,28 52,28 35,0 62,-28 62,-62 0,-34 -27,-62 -62,-62 -25,0 -47,15 -56,36 -4,8 -6,17 -6,26 0,12 4,24 10,34z"/>
  <path class="fil9 str0" d="M10194 11812c0,-11 -3,-21 -8,-30 -10,-19 -31,-32 -54,-32 -35,0 -62,27 -62,62 0,34 27,62 62,62 24,0 44,-13 55,-33 4,-9 7,-19 7,-29z"/>
  <path class="fil9 str0" d="M10801 11234c21,-10 35,-31 35,-56 0,-34 -28,-62 -62,-62 -35,0 -63,28 -63,62 0,19 9,36 22,48 11,9 25,15 41,15 9,0 19,-3 27,-7z"/>
  <path class="fil9 str0" d="M10732 12431c-13,12 -22,29 -22,47 0,35 28,62 63,62 34,0 62,-27 62,-62 0,-20 -10,-38 -25,-50 -10,-7 -23,-12 -37,-12 -16,0 -30,6 -41,15z"/>
 </g>
</svg>
